<svg xmlns="http://www.w3.org/2000/svg" viewBox="0 0 450.86 413.1">
  <g id="Calque_2" data-name="Calque 2">
    <g id="Calque_8" data-name="Calque 8">
      <path d="M241.69,0C149.16,0,70.5,59.45,43,142L23.68,107.6a12.71,12.71,0,0,0-12.51-6.48,12.44,12.44,0,0,0-9.84,6.82,12.33,12.33,0,0,0,.45,12L36.2,181.24a12.56,12.56,0,0,0,16.65,5.14l61.23-31.29A12.54,12.54,0,0,0,120,138a12.39,12.39,0,0,0-17.21-5.14L66.37,151.41C90.05,78.33,159.44,25,241.8,25c101.9,0,184,81.23,184,181.46S343.7,388,241.8,388C154.64,388,81.9,328.18,62.68,248.4h0a12.5,12.5,0,0,0-23.35-4.47,12.87,12.87,0,0,0-.9,10.16c21.9,91.07,104.7,159,203.37,159,115.2,0,209.06-92.52,209.06-206.49S356.89,0,241.69,0Zm1.11,93.64a12.53,12.53,0,0,0-11.17,12.74V206.49h0a12.61,12.61,0,0,0,4.69,9.84l62.58,50.06a12.57,12.57,0,0,0,15.64-19.67l-57.88-46.37V106.26h0a12.73,12.73,0,0,0-4-9.49,12.92,12.92,0,0,0-9.84-3.13Z"/>
    </g>
  </g>
</svg>
