<svg xmlns="http://www.w3.org/2000/svg" viewBox="0 0 825 645">
  <g id="Calque_2" data-name="Calque 2">
    <g id="Calque_1-2" data-name="Calque 1">
      <path d="M102.72,399.77H173V447.5h-153L97.38,313.76H24.67v-48H180.05Z" fill="#fff"/>
      <path d="M204.28,265.8H252V447.52H204.28Z" fill="#fff"/>
      <path d="M464.38,265.8l-82.9,83.1,98.41,98.62H412.51l-64.72-64.45L336.4,394.7v52.82H288.65V265.8H336.4v61.29l61.09-61.29Z" fill="#fff"/>
      <path d="M512.61,304.07c-10.42,0-19.15-8.24-19.15-18.66s8.73-19.63,19.15-19.63,19.15,9.21,19.15,19.63c0,0,1.2,21.33-19.15,38.52Z" fill="#fff"/>
      <path d="M147.55,645l-12.48-12.23A87.68,87.68,0,0,1,90,645a89.92,89.92,0,1,1,90-89.92,88,88,0,0,1-12,44.6L213.52,645ZM90,598a38.06,38.06,0,0,0,9.12-1L77,575l33.35-33.09L132,563.47a44.65,44.65,0,0,0,.73-8.14A42.19,42.19,0,0,0,90,512.64,42.68,42.68,0,1,0,90,598Z" fill="#fff"/>
      <path d="M269.41,573.3a23.51,23.51,0,0,0,47,0V465.16h47.51V574a71,71,0,0,1-142,0V465.16h47.5Z" fill="#fff"/>
      <path d="M399.91,465.16h111.8v39.08H447.17v29.25h57.1V573.3h-57.1v33.09H511.7V645H399.91Z" fill="#fff"/>
      <path d="M611.74,520.32a13.83,13.83,0,0,0-13.67-13.67,13.62,13.62,0,0,0-13.43,13.67,13.4,13.4,0,0,0,13.42,13.42,55.63,55.63,0,0,1,0,111.25c-30.71,0-55.42-24.22-55.42-55.87h42a13.45,13.45,0,0,0,13.43,13.66,13.61,13.61,0,0,0,13.67-13.42,13.82,13.82,0,0,0-13.67-13.66,55.27,55.27,0,1,1,55.42-55.4H611.74Z" fill="#fff"/>
      <path d="M683.22,464.92H825v47H777.26V645H730V511.92H683.22Z" fill="#fff"/>
      <path d="M416.87,64.76c177.72,0,322.3,144.51,322.3,322.14a323.53,323.53,0,0,1-5.29,58.28h65.73A392.52,392.52,0,0,0,804,386.9,387,387,0,0,0,416.87,0C313.47,0,216.26,40.24,143.15,113.33A385.65,385.65,0,0,0,54.29,250.92h70.45C176.12,141.06,287.74,64.76,416.87,64.76Z" fill="#57cee2"/>
      <path d="M417.67,127.89C560.11,127.89,676,243.71,676,386.09a258.73,258.73,0,0,1-6.83,59.09h66.18a323.33,323.33,0,0,0,5.44-59.09C740.79,208,595.84,63.14,417.68,63.14c-129.91,0-242.13,77-293.41,187.78h73.41C243.2,177.16,324.79,127.89,417.67,127.89Z" fill="#f9075f"/>
      <path d="M417.67,192.64c106.72,0,193.54,86.78,193.54,193.45A192.55,192.55,0,0,1,602,445.18h67.2A258.17,258.17,0,0,0,676,386.09c0-142.38-115.89-258.2-258.33-258.2-92.9,0-174.49,49.26-220,123h81.7A193.06,193.06,0,0,1,417.67,192.64Z" fill="#ffac00"/>
      <path d="M108.57,188.56c9.92-18.13,22.22-34.79,35.56-50.55A380.52,380.52,0,0,1,188,94.22c8-6.62,16.12-13,24.65-19s17.2-11.64,26.21-16.82a345.92,345.92,0,0,1,56.48-26.54A339.83,339.83,0,0,1,356,16c2.58-.48,5.18-.76,7.77-1.14s5.17-.78,7.78-1c5.21-.51,10.41-1.08,15.63-1.31s10.44-.44,15.67-.57c5.22.06,10.44,0,15.66.26a368.55,368.55,0,0,1,61.93,7.79c10.17,2.14,20.22,4.78,30.13,7.81a241.22,241.22,0,0,1,29.1,10.89L539.18,40a525.45,525.45,0,0,0-121-14.75c-10.11-.09-20.2.22-30.28.82s-20.12,1.47-30.13,2.68l-7.5,1c-2.5.31-5,.8-7.46,1.19-5,.76-9.93,1.82-14.88,2.84-2.48.46-4.9,1.17-7.37,1.73s-4.91,1.16-7.34,1.86c-4.83,1.43-9.74,2.67-14.51,4.34A335.48,335.48,0,0,0,243,65.75c-9,4.78-17.65,10.06-26.15,15.65S200.13,93,192.11,99.24a374.12,374.12,0,0,0-45,41.4q-10.4,11.27-19.84,23.38a257.29,257.29,0,0,0-17.57,25.14Z" fill="#fff"/>
      <path d="M182.32,194.67a238.74,238.74,0,0,1,20.39-24.29q10.9-11.55,22.89-22c8-7,16.34-13.61,25-19.81s17.66-11.94,26.89-17.32c4.64-2.64,9.26-5.34,14-7.77,4.69-2.59,9.54-4.86,14.36-7.25a187.71,187.71,0,0,1,30.27-11,204.45,204.45,0,0,1,31.66-5.78,166.56,166.56,0,0,1,32-.41L400,80.3c-10.29,2.84-20.46,5.15-30.45,8.07-10,2.72-19.83,6-29.59,9.21-4.86,1.71-9.74,3.34-14.54,5.14s-9.66,3.54-14.51,5.27a298.47,298.47,0,0,0-28.43,12.31q-13.81,7.1-27,15.38T229.7,153.37a315.37,315.37,0,0,0-46.34,42.09Z" fill="#fff"/>
      <path d="M270.42,194.59A193.27,193.27,0,0,1,293.54,174c4.14-3.09,8.36-6.13,12.72-9,2.16-1.45,4.41-2.78,6.64-4.1s4.47-2.7,6.79-3.9,4.59-2.52,6.89-3.8l7-3.6a59.08,59.08,0,0,1,7.33-3,51.49,51.49,0,0,1,7.63-2.17c2.61-.51,5.22-1,7.84-1.38s5.33-.42,8-.51c1.33,0,2.66-.06,4-.05s2.68.22,4,.37a66.48,66.48,0,0,1,7.94,1.35l.1,1.29c-9.77,4.66-19,7.62-28.21,11.35-2.33.75-4.58,1.75-6.92,2.51-1.16.41-2.34.76-3.52,1.11s-2.37.69-3.53,1.09l-7.13,2.17c-2.35.81-4.66,1.73-7,2.64s-4.6,1.93-6.88,3-4.57,2-6.79,3.19c-4.55,2.14-9,4.47-13.43,6.89a263.6,263.6,0,0,0-25.79,16.11Z" fill="#fff"/>
    </g>
  </g>
</svg>
