<svg xmlns="http://www.w3.org/2000/svg" viewBox="0 0 632.24 264.9">
  <g id="Calque_2" data-name="Calque 2">
    <g id="Logo_Couleur_V1_V2" data-name="Logo Couleur V1 V2">
      <g id="V2">
        <g>
          <path d="M0,89.64,52.34,23.18H.83V7.39H74.08V23.18L21.32,89.64H74.91v15.79H0Z" fill="#fff"/>
          <path d="M110.77,7.39h17.45v98H110.77Z" fill="#fff"/>
          <path d="M164.08,89.64l52.35-66.46H164.92V7.39h73.25V23.18L185.41,89.64H239v15.79H164.08Z" fill="#e23f6f"/>
          <path d="M279,3.33h17.45v102.1H279Z" fill="#e23f6f"/>
          <path d="M452.1,105.43H395.05a62.19,62.19,0,0,1-21.26-3.53A49.55,49.55,0,0,1,356.9,91.79a46.84,46.84,0,0,1-11.22-16.06,53.69,53.69,0,0,1-4.08-21.4,47.89,47.89,0,0,1,4.08-19.87,48.37,48.37,0,0,1,11.15-15.65A51.35,51.35,0,0,1,373.24,8.57a55.62,55.62,0,0,1,39.74,0,51.35,51.35,0,0,1,16.41,10.24,48.37,48.37,0,0,1,11.15,15.65,47.89,47.89,0,0,1,4.08,19.87A45,45,0,0,1,442.75,68a39.77,39.77,0,0,1-4.91,10.39,35.88,35.88,0,0,1-6.72,7.54A58.73,58.73,0,0,1,424,91v.27H452.1ZM392.7,20.68a33,33,0,0,0-13.09,2.57,30.87,30.87,0,0,0-10.39,7.13,33.4,33.4,0,0,0-6.85,10.8,36.23,36.23,0,0,0-2.49,13.57,38.23,38.23,0,0,0,2.49,13.91,33.1,33.1,0,0,0,6.92,11.08A31.89,31.89,0,0,0,379.75,87,32.54,32.54,0,0,0,393,89.64,33.53,33.53,0,0,0,406.33,87a31.55,31.55,0,0,0,10.6-7.27,33.1,33.1,0,0,0,6.92-11.08,38.23,38.23,0,0,0,2.49-13.91,36.23,36.23,0,0,0-2.49-13.57,32.75,32.75,0,0,0-6.92-10.8,31.34,31.34,0,0,0-10.6-7.13A35.1,35.1,0,0,0,392.7,20.68Z" fill="#5cc7d5"/>
          <path d="M543.35,69.42a40.36,40.36,0,0,1-3.05,16A35.8,35.8,0,0,1,532,97.53a36.46,36.46,0,0,1-12.46,7.69,46.68,46.68,0,0,1-31.29,0,37.16,37.16,0,0,1-12.53-7.69,34.44,34.44,0,0,1-8.31-12.11,41.07,41.07,0,0,1-3-16v-62h17.45V68.87A27.88,27.88,0,0,0,483,76.42a21.06,21.06,0,0,0,3.67,7.27,19.53,19.53,0,0,0,6.78,5.47,26.61,26.61,0,0,0,20.91,0,19.62,19.62,0,0,0,6.78-5.47,21.24,21.24,0,0,0,3.67-7.27,27.88,27.88,0,0,0,1.11-7.55V7.39h17.45Z" fill="#e23f6f"/>
          <path d="M564.81,7.39h64.94V23.18H582.26V47.27h45V63.06h-45V89.64h50v15.79H564.81Z" fill="#fff"/>
          <rect x="222.36" y="89.56" width="73.87" height="15.87" fill="#e23f6f"/>
          <rect x="54.37" y="89.63" width="73.87" height="15.8" fill="#fff"/>
        </g>
        <rect x="197.06" y="89.63" width="73.87" height="15.8" fill="#e23f6f"/>
        <path d="M234.59,143.59a44.4,44.4,0,0,1,9.41,1c-.26-5.07-.41-10.22-.41-15.45,0-59.1,17.31-108.72,40.69-122.61a25.51,25.51,0,0,0-12.16-3.22c-29.83,0-54,56.62-54,126.48q0,8.53.48,16.78A44.15,44.15,0,0,1,234.59,143.59Z" fill="#4ebbc3"/>
        <ellipse cx="336.08" cy="207.24" rx="51.41" ry="57.66" fill="#fff"/>
        <path d="M393.49,208.2c0,23.6-17.83,42.74-39.81,42.74s-37.82-19.14-37.82-42.74,15.83-42.74,37.82-42.74S393.49,184.59,393.49,208.2Z" fill="#e23f6f"/>
        <ellipse cx="234.59" cy="198.73" rx="49.17" ry="55.14" fill="#fff"/>
        <ellipse cx="243.48" cy="197.73" rx="36.45" ry="40.88" fill="#e23f6f" opacity="0.75"/>
        <path d="M326.11,129.81c0,7.17-.26,14.2-.75,21,0,.47,4.13,1.51,4.62,1.63a34,34,0,0,0,5,.78,67.88,67.88,0,0,0,10.29.14c.73-.05,5.33-.37,5.41-1.43.58-7.4.88-15,.88-22.81A281.89,281.89,0,0,0,348.36,86a208.09,208.09,0,0,0-8.92-36.76,129.6,129.6,0,0,0-13.89-28.43C318.84,10.53,308.34,4,296.48,1.31A50.69,50.69,0,0,0,260.63,6.2c12.17-6.25,23.65.35,23.65.35C308.24,19.48,326.11,69.76,326.11,129.81Z" fill="#5cc7d5"/>
        <circle cx="226.41" cy="182.08" r="2.1" fill="#e23f6f"/>
        <circle cx="240.43" cy="176.6" r="2.1" fill="#e23f6f"/>
        <circle cx="253.8" cy="177.88" r="2.1" fill="#e23f6f"/>
        <circle cx="262.72" cy="186.27" r="2.1" fill="#e23f6f"/>
        <circle cx="266.38" cy="198.33" r="2.1" fill="#e23f6f"/>
        <circle cx="222.22" cy="199.17" r="2.1" fill="#e23f6f"/>
        <circle cx="229.54" cy="215.54" r="2.1" fill="#e23f6f"/>
        <circle cx="247.51" cy="219.07" r="2.1" fill="#e23f6f"/>
        <circle cx="260.63" cy="212.26" r="2.1" fill="#e23f6f"/>
        <circle cx="254.85" cy="202.53" r="2.1" fill="#e23f6f"/>
        <circle cx="235.27" cy="203.36" r="2.1" fill="#e23f6f"/>
        <circle cx="236.8" cy="190.5" r="2.1" fill="#e23f6f"/>
        <circle cx="250.05" cy="190.27" r="2.1" fill="#e23f6f"/>
        <path d="M360,205.07c1-11.61-1-27-3.7-39.53-.48-.06-2.59-.1-3.59-.09a27.85,27.85,0,0,0-4.35.39,191.93,191.93,0,0,1,4,50.74,7.25,7.25,0,0,0,5.62,7.6A14.86,14.86,0,0,0,375.67,210C375.85,204.3,371.28,200.27,360,205.07Z" fill="#5cc7d5"/>
        <ellipse cx="362.87" cy="214.58" rx="5.76" ry="4.37" transform="translate(-58.7 213.65) rotate(-30.47)" fill="#e23f6f"/>
      </g>
    </g>
  </g>
</svg>
