<svg xmlns="http://www.w3.org/2000/svg" viewBox="0 0 405.72 468.83">
  <g id="Calque_2" data-name="Calque 2">
    <g id="Calque_1-2" data-name="Calque 1">
      <g id="BIRAAT.tif">
        <g>
          <path d="M127.91,468.83c0-26.87.16-53.74,0-80.61,0-4.21,1.2-5.42,5.3-5.18,5.29.3,10.62,0,15.94-.1,1.92-1.75,4.34-1.47,6.62-1.48q47.1-.06,94.2,0c2.29,0,4.7-.27,6.63,1.48,5.31.06,10.64.4,15.93.1,4.11-.24,5.33,1,5.31,5.18-.17,26.87-.05,53.74,0,80.61Z" fill="#ad7d4e"/>
          <path d="M0,69.81a1.52,1.52,0,0,1,.84-.12,17.35,17.35,0,0,1,0,16.2A2.79,2.79,0,0,1,0,85.77Z" fill="#facf99"/>
          <path d="M404.87,62.75a2.7,2.7,0,0,1,.85.08v15l-.41.1h-.42A15.27,15.27,0,0,1,404.87,62.75Z" fill="#fbdab0"/>
          <path d="M98.85,10.17c1.85,1,3.87.76,5.86.76h193.8c2.15,0,4.31.14,6.3-.95,5.44.37,6.29,1.35,5.79,6.72a113.8,113.8,0,0,0-.12,17.9c-.09,5.83-1.78,11.57-.88,17.45-1.26,9.08-1.39,18.27-2.74,27.33-1.69,14.51-3.46,29-6,43.4-5,29-11.9,57.57-22.8,85-4.57,10.46-9.88,20.56-15.14,30.69a13.93,13.93,0,0,0-4.92,4.7c-9.06,13.16-20.13,24-35.19,30.18-.43.17-.73.63-1.1.95-5.67,3.92-12.31,3.64-18.64,3.66-6.49,0-13.3.31-19.14-3.66-10.66-5.24-20.38-11.71-28.33-20.72-3.72-4.2-6.24-9.4-10.81-12.87-6.53-8.71-10.21-19-15.38-28.39-14-32.74-21.4-67.22-26.87-102.2-1.72-11-2.84-22-4.42-33C96.64,57.06,95.23,37,95,16.83,95,13.7,94.59,10.69,98.85,10.17Z" fill="#fab752"/>
          <path d="M309.51,34.82a39.76,39.76,0,0,1-.38-17.08c.79-4.64-.27-6.6-4.32-7.75,16.74-10.38,34.59-11.51,53-5.86,26.78,8.2,45.54,31.8,47,58.62q0,7.56,0,15.13c-1.58,18.76-7.21,36.33-15.84,53-23.5,45.36-61.11,75.69-105.72,98.44-6.62,3.38-13.17,7.05-20.37,9.21-.28-.38-.89-.92-.8-1.11q7.26-14.34,14.64-28.61c1.13-2,3-3,4.89-4.08,22.13-12.12,42.45-26.7,59.75-45.13,18.8-20,32.84-42.86,39.07-70,1-4.37,1.15-8.88,2.42-13.2A23.66,23.66,0,0,0,382.87,66c-1.56-14.47-7.61-26.41-20-34.58-12.9-8.53-26.82-9.94-41.42-5.15a20.54,20.54,0,0,0-8.17,5.56C312.17,33,311.44,34.67,309.51,34.82Z" fill="#f1a032"/>
          <path d="M256.59,382.94H149.14c-1.63-10.31,2.54-17.78,11-23.57a197.71,197.71,0,0,1,31.67-18.25,34.09,34.09,0,0,1,22.17,0,170,170,0,0,1,35.91,21.68C256.57,368.15,257.19,375.29,256.59,382.94Z" fill="#f9b448"/>
          <path d="M214,341.12H191.78q-1.71-14.49-3.4-29L184,274.33c4.79-.1,9.17,2.07,14,2.12,7.22.08,14.32.15,21.29-2.05a9.49,9.49,0,0,1,2.45-.07q-1.71,15-3.44,30Q216.15,322.71,214,341.12Z" fill="#f1a032"/>
          <path d="M98.85,10.17c-2.39,1.43-3.48,3.16-2.39,6.14.65,1.78.49,3.91.45,5.87a369.16,369.16,0,0,0,3,51.16,5.89,5.89,0,0,1-1,4.24c-.22,1.9-1.6,2.87-3.1,3.62-13.3,6.64-26.69,7.89-40,.25C47.68,76.83,43.55,69.39,42,60.51c-1.11-6.2.43-7.84,6.67-7.95,2.83-.06,5.67.14,8.48-.05,4.39-.29,7.74.52,9.13,5.5.83,3,3.71,4,6.7,4.39a17.51,17.51,0,0,0,18.7-11.07C95,43,92.81,33.69,86,29c-9.4-6.58-20-7.43-30.59-4.49-14.57,4-23.52,14.45-28.54,28.37C21.78,67,22.58,81.6,24.58,96.17c4.34,31.52,20.48,56.36,44,77,17.27,15.17,36.74,26.83,57.68,36.16,1.71.77,2.93,2.16,4.58,2.94,4.4,8.37,8.06,17.11,13,25.18a13.14,13.14,0,0,1,1,3.28c-41.78-13.63-79.09-34.54-108.55-67.68C17.3,151.72,5.63,126.74,2,98.24,1.52,94.14,1.25,90,.86,85.89q0-8.1,0-16.2c2-27.57,12.48-50.35,38.33-63.07C59.35-3.3,79.61-2,98.85,10.17Z" fill="#f1a032"/>
          <path d="M202.8,467.85c-23,0-46-.09-68.93.09-3.94,0-5.09-1.08-5.06-5q.25-36.88,0-73.79c0-4.34,1.46-5.17,5.44-5.16q68.69.18,137.37,0c4.14,0,5.34,1.13,5.31,5.29q-.29,36.64,0,73.29c.05,4.61-1.5,5.46-5.7,5.42C248.43,467.75,225.61,467.85,202.8,467.85Z" fill="#82524a"/>
          <path d="M213.74,127.65V174c0,7.43,0,7.43-7.7,7.43-3,0-6-.2-9,.05-3.95.34-5.17-1.21-5.15-5.12.16-21.59.08-43.18.08-64.77,0-9,0-8.86-8.67-6.14-3.93,1.23-8.85,4.84-11.54,3s-.39-7.71-.92-11.75c-.56-4.32,1.1-6.47,5.29-8,10.61-3.81,21-8.17,31.51-12.33,6-2.36,6.07-2.31,6.08,3.91Z" fill="#ffebac"/>
          <path d="M308.53,52c5,10.92,15.23,15.77,24.58,11.86,3.21-1.34,5.44-3.45,5.75-6.79.27-2.84,1.68-3.06,3.91-3a127.1,127.1,0,0,0,13-.05c4.12-.33,4.4,2,3.91,4.87-2.3,13.44-9.11,22-23.72,25.69-10.62,2.66-20.66.43-30.12-4.8C306.33,70.51,306.7,61.2,308.53,52Z" fill="#f1a032"/>
          <path d="M384.05,76.78q0-5.48,0-10.93A18.2,18.2,0,0,1,384.05,76.78Z" fill="#fab752"/>
          <path d="M202.82,415.16c15.81,0,31.62.21,47.41-.13,5-.11,6.39,1.46,5.89,6.15a56.32,56.32,0,0,0,0,10.94c.35,3.87-1.18,4.7-4.81,4.68-22.79-.15-45.58-.08-68.37-.08-9.65,0-19.3-.09-28.95,0-3.05.05-4.61-.55-4.38-4.07a105.74,105.74,0,0,0,0-13.44c-.22-3.43,1.16-4.18,4.31-4.16C170.22,415.22,186.52,415.16,202.82,415.16Z" fill="#ffdd74"/>
        </g>
      </g>
    </g>
  </g>
</svg>
