<svg width="970" height="875" viewBox="0 0 970 875" fill="none" xmlns="http://www.w3.org/2000/svg">
<g clip-path="url(#clip0)">
<path d="M602.91 699.193L554.697 726.601L530.53 693.083L580.938 672.319L602.91 699.193Z" fill="#FFC39E"/>
<path d="M432.68 740.542C432.68 740.542 397.098 755.373 411.923 785.035C426.749 814.697 456.401 808.765 471.227 796.9L432.68 740.542Z" fill="#707172"/>
<path d="M432.68 740.542C432.68 740.542 447.476 729.567 475.675 723.19C503.844 716.812 530.531 684.184 530.531 684.184C530.531 684.184 536.965 684.184 541.146 690.117L563.385 722.033C563.385 722.033 566.676 722.745 569.345 725.711C569.345 725.711 551.257 737.576 527.536 746.474C503.814 755.373 497.884 773.17 497.884 773.17C497.884 773.17 488.989 790.968 471.197 796.9C454.355 802.536 432.68 740.542 432.68 740.542Z" fill="#E35F38"/>
<path d="M770.71 838.427C770.71 838.427 791.466 844.359 797.397 829.528C803.327 814.697 812.223 770.204 803.327 746.475C794.431 722.745 807.953 693.973 784.884 692.045L779.606 734.61L770.71 838.427Z" fill="#707172"/>
<path d="M727.953 680.328C727.953 680.328 738.272 690.651 760.422 687.417C782.571 684.184 784.884 692.045 784.884 692.045C784.884 692.045 783.372 727.995 788.917 744.665C794.462 761.335 794.462 805.799 770.74 838.427C770.74 838.427 764.009 834.867 759.947 798.086C755.914 761.305 748.027 731.643 692.667 725.711C692.667 725.711 681.785 710.88 717.367 696.049C717.337 696.049 714.817 679.468 727.953 680.328Z" fill="#E35F38"/>
<path d="M432.679 740.542C432.679 740.542 405.992 752.407 420.818 782.069C435.644 811.731 471.226 796.9 471.226 796.9C471.226 796.9 494.948 740.542 432.679 740.542Z" fill="white"/>
<path d="M791.466 779.103C791.466 779.103 767.745 785.035 761.814 811.731C755.884 838.427 770.71 838.427 770.71 838.427C770.71 838.427 791.466 805.799 791.466 779.103Z" fill="white"/>
<path d="M299.662 464.033L251.804 443.922C251.804 443.922 236.948 443.269 242.879 453.977L334.829 491.381L370.411 503.246L373.376 488.415L299.662 464.033Z" fill="black"/>
<path d="M457.705 441.519C457.705 441.519 456.044 484.055 457.705 495.148L400.062 491.411C400.062 491.411 391.166 449.884 382.271 449.884C364.479 449.884 355.584 443.952 343.723 458.783C331.862 473.614 331.862 476.58 331.862 476.58C331.862 476.58 346.688 479.546 355.584 464.715C355.584 464.715 367.445 464.715 370.41 461.749C370.41 461.749 376.34 485.478 379.305 488.445C379.305 488.445 340.758 479.546 328.897 488.445C328.897 488.445 325.22 473.258 308.141 464.715C302.211 461.749 300.52 462.431 299.661 464.062C298.415 466.435 298.386 471.033 305.176 479.546C305.176 479.546 287.385 467.681 281.454 473.614C275.524 479.546 278.489 482.512 296.28 491.411C314.071 500.309 325.932 500.309 346.688 512.174C367.445 524.039 377.141 521.073 385.621 519.59C394.131 518.107 481.13 553.345 499.899 541.658C518.669 529.971 500.878 470.647 500.878 470.647C500.878 470.647 473.835 427.252 457.705 441.519Z" fill="#FFC39E"/>
<path d="M765.342 436.121C765.342 436.121 764.749 476.639 770.68 486.991C776.61 497.343 824.053 488.445 824.053 488.445C824.053 488.445 835.914 470.647 847.775 461.749C859.635 452.85 862.6 443.951 874.461 446.918C886.322 449.884 895.217 452.85 895.217 452.85C895.217 452.85 898.183 458.783 880.392 458.783C862.6 458.783 862.6 467.681 865.566 473.614C868.531 479.546 880.392 494.377 889.287 491.411C898.183 488.445 924.869 479.546 915.974 473.614C915.974 473.614 904.113 470.647 904.113 458.783C904.113 458.783 918.939 461.749 924.869 467.681C930.8 473.614 927.834 479.546 927.834 479.546C927.834 479.546 942.66 467.681 951.556 467.681C957.338 467.681 960.6 470.173 962.201 471.952C962.913 472.753 962.646 474.029 961.667 474.503L951.556 479.576C951.556 479.576 958.702 477.203 968.754 480.97C970.296 481.533 970.444 483.669 969.021 484.499C957.279 491.233 916.27 513.331 876.744 516.89C829.983 521.102 809.227 538.9 797.366 538.9C785.506 538.9 743.993 464.745 743.993 464.745L746.958 432.116L765.342 436.121Z" fill="#FFC39E"/>
<path d="M675.824 654.522L725.402 680.981L743.786 704.948L723.267 725.711L671.673 704.948L675.824 654.522Z" fill="#FFC39E"/>
<path d="M541.145 690.117C541.145 690.117 465.296 731.999 471.226 749.619C477.156 767.238 568.691 725.711 570.352 716.812C572.012 707.914 566.616 690.117 541.145 690.117Z" fill="#F77152"/>
<path d="M692.636 725.711C692.636 725.711 678.789 713.846 717.336 696.049C717.336 696.049 775.009 695.752 783.223 781.921C783.223 781.921 767.744 790.968 761.814 811.731C761.814 811.731 765.817 731.643 692.636 725.711Z" fill="#F77152"/>
<path d="M541.204 690.265C532.516 694.863 524.036 699.905 515.823 705.274C507.579 710.613 499.573 716.338 492.16 722.686C484.807 729.063 477.927 736.182 473.124 744.368L472.205 745.881C471.879 746.386 471.819 746.712 471.73 747.157C471.612 748.017 471.849 748.907 472.383 749.619C473.776 751.369 475.674 752.704 477.779 753.504C482.108 755.136 487.149 754.127 491.716 752.526L491.834 752.792C487.564 755.165 482.375 756.916 477.157 755.492C474.577 754.839 472.234 753.267 470.426 751.28C469.388 750.123 468.824 748.462 468.973 746.86C469.032 746.089 469.299 745.199 469.625 744.635L470.515 742.945C475.348 733.868 482.998 727.076 490.648 720.847C498.387 714.617 506.63 709.13 515.052 703.998C523.532 698.926 532.22 694.24 541.116 689.968L541.204 690.265Z" fill="black"/>
<path d="M770.592 838.338C773.854 833.384 776.641 828.134 779.132 822.795C781.652 817.456 783.787 811.939 785.507 806.332C787.286 800.726 788.324 794.942 789.45 789.218C790.666 783.463 791.111 777.649 791.763 771.717L792.06 771.687C792.445 774.624 792.979 777.649 792.86 780.645C792.89 782.158 792.86 783.671 792.801 785.154L792.356 789.662C791.585 795.654 789.865 801.468 787.731 807.074C783.639 818.346 777.975 828.994 770.799 838.516L770.592 838.338Z" fill="black"/>
<path d="M785.031 692.045C785.476 700.854 786.069 709.634 786.78 718.414C787.196 722.804 787.818 727.135 788.085 731.495C788.352 735.885 788.56 740.186 789.034 744.606L788.767 744.695C786.692 740.661 785.832 736.182 785.15 731.792C784.497 727.402 784.527 722.953 784.438 718.533C784.23 709.694 784.349 700.854 784.764 692.045H785.031Z" fill="black"/>
<path d="M735.81 684.926C739.338 686.498 743.134 687.506 746.929 687.922C750.695 688.396 754.55 688.129 758.078 686.973C759.739 686.379 761.636 685.4 763.623 684.896C765.61 684.333 767.715 684.095 769.791 684.214C773.912 684.54 778.004 686.053 780.88 688.93L780.703 689.167C777.055 687.744 773.349 687.091 769.702 687.18C767.893 687.18 766.084 687.417 764.275 687.744C762.467 688.011 760.777 688.693 758.701 689.256C754.698 690.235 750.576 690.176 746.662 689.375C742.748 688.545 739.042 687.121 735.632 685.163L735.81 684.926Z" fill="black"/>
<path d="M791.495 693.587C794.49 694.625 796.595 697.206 797.9 699.994C799.234 702.812 799.709 705.927 799.887 708.982C799.976 715.122 799.649 721.173 800.005 727.194C800.302 733.216 801.31 739.178 803.623 744.665C804.839 747.394 805.787 750.568 806.321 753.564C806.944 756.589 807.329 759.644 807.656 762.7C808.871 774.891 808.782 787.26 806.766 799.392C804.75 811.464 801.043 823.418 794.876 833.977L794.609 833.829C799.205 822.557 802.378 810.9 803.83 798.917C805.402 786.993 806.173 774.891 805.283 762.878C804.72 756.886 804.157 750.835 801.844 745.347C799.561 739.563 798.671 733.334 798.523 727.224C798.345 721.113 798.879 715.003 798.997 708.982C798.908 705.986 798.552 702.96 797.337 700.202C796.21 697.502 794.194 694.922 791.406 693.854L791.495 693.587Z" fill="black"/>
<path d="M530.648 684.273C524.481 691.629 517.72 698.481 510.456 704.77C503.102 710.969 495.244 716.694 486.378 720.787C477.601 724.851 468.291 727.847 459.039 730.071C454.414 731.199 449.907 732.504 445.518 734.283C441.13 736.063 436.919 738.288 432.768 740.631L432.59 740.394C436.296 737.339 440.329 734.61 444.658 732.385C448.987 730.131 453.643 728.588 458.239 727.194C467.49 724.584 476.652 722.33 485.429 718.622C494.117 714.944 502.064 709.545 509.507 703.643C516.949 697.68 523.977 691.155 530.411 684.095L530.648 684.273Z" fill="black"/>
<path d="M416.518 768.691C417.734 774.535 420.136 780.111 423.457 784.976C426.778 789.811 431.285 793.874 436.622 796.129C441.959 798.353 447.771 798.976 453.553 798.887C455.006 799.065 456.459 798.68 457.912 798.62C459.365 798.502 460.848 798.353 462.33 798.264C465.236 797.701 468.142 797.137 471.167 796.752L471.255 797.019C468.498 798.205 465.622 799.243 462.745 800.252C459.751 800.845 456.756 801.616 453.672 801.824C447.475 802.328 441.159 800.964 435.584 798.235C429.95 795.506 425.384 790.938 422.211 785.747C419.098 780.467 417.052 774.683 416.222 768.691H416.518Z" fill="black"/>
<path d="M569.432 725.83C562.168 731.11 554.458 735.737 546.423 739.86C542.42 741.936 538.387 743.983 534.087 745.407C529.788 746.801 525.34 747.839 520.803 748.136L520.744 747.839C524.866 745.941 528.987 744.368 533.079 742.618C537.142 740.868 541.352 739.474 545.444 737.695C549.536 735.915 553.569 734.016 557.512 731.97C561.486 729.982 565.459 727.847 569.284 725.563L569.432 725.83Z" fill="black"/>
<path d="M512.443 754.958C509.33 757.805 506.513 761.009 504.081 764.45C502.866 766.14 501.709 767.92 500.731 769.729C499.722 771.598 499.07 773.408 498.092 775.484C496.105 779.459 493.466 783.048 490.204 785.955C486.972 788.832 483.384 791.353 479.441 793.133L479.263 792.896C482.258 789.811 485.282 786.904 488.129 783.849C490.945 780.823 493.881 777.887 495.986 774.386C496.935 772.696 497.914 770.56 499.07 768.751C500.226 766.912 501.531 765.191 502.895 763.53C505.712 760.267 508.826 757.301 512.235 754.721L512.443 754.958Z" fill="black"/>
<path d="M442.346 740.928C446.853 740.809 451.39 741.521 455.748 742.915C460.078 744.368 464.199 746.712 467.579 749.915C470.9 753.119 473.895 757.064 475.022 761.661C475.852 763.856 475.912 766.229 476.208 768.513C476.297 770.827 476.06 773.111 475.823 775.365H475.526C474.933 773.141 474.666 770.946 474.162 768.81C473.806 767.772 473.569 766.704 473.273 765.666C473.124 765.162 473.035 764.598 472.858 764.094L472.235 762.611C470.871 758.547 468.766 754.81 465.919 751.606C463.013 748.432 459.307 745.97 455.244 744.309C451.212 742.618 446.823 741.521 442.375 741.224L442.346 740.928Z" fill="black"/>
<path d="M408.454 763.649C407.92 767.09 408.276 770.649 409.047 774.001C409.788 777.382 411.063 780.615 412.664 783.641C414.325 786.666 416.489 789.306 418.476 792.095C419.455 793.518 420.581 794.794 421.56 796.247C422.657 797.582 423.754 798.976 424.762 800.489L424.555 800.726C423.013 799.807 421.471 798.828 420.048 797.701C418.713 796.514 417.32 795.328 416.134 793.934C413.672 791.234 411.982 787.942 410.5 784.649C407.623 778.035 406.319 770.53 408.128 763.56L408.454 763.649Z" fill="black"/>
<path d="M554.666 692.074C557.246 692.816 559.707 694.002 561.96 695.485C564.214 696.998 566.23 698.867 567.861 701.121C569.462 703.346 570.648 705.956 571.152 708.685C571.805 711.414 571.716 714.202 571.508 716.961L571.479 717.228L571.301 717.465C569.581 719.897 567.624 721.707 565.519 723.546C563.413 725.325 561.13 726.838 558.788 728.203C556.415 729.537 553.954 730.694 551.434 731.673L547.609 733.038C546.304 733.394 544.999 733.779 543.695 734.076L543.576 733.809L550.515 729.804C552.768 728.41 555.081 727.135 557.246 725.652C559.44 724.258 561.604 722.775 563.71 721.232C565.756 719.719 567.831 717.969 569.344 716.13L569.166 716.635C569.492 714.113 569.729 711.533 569.255 709.041C568.928 706.52 567.98 704.087 566.616 701.922C563.947 697.532 559.499 694.21 554.577 692.341L554.666 692.074Z" fill="black"/>
<path d="M470.9 730.19C475.378 735.529 479.084 741.343 482.613 747.246C486.052 753.208 489.314 759.288 491.775 765.814C487.268 760.475 483.562 754.661 480.063 748.758C476.623 742.796 473.361 736.716 470.9 730.19Z" fill="white"/>
<path d="M478.698 725.148C483.176 730.487 486.882 736.3 490.411 742.203C493.85 748.165 497.112 754.246 499.573 760.772C495.066 755.432 491.36 749.619 487.861 743.716C484.421 737.754 481.159 731.673 478.698 725.148Z" fill="white"/>
<path d="M487.594 719.215C492.071 724.554 495.778 730.368 499.306 736.271C502.746 742.233 506.008 748.314 508.469 754.839C503.962 749.5 500.255 743.686 496.756 737.784C493.317 731.821 490.055 725.741 487.594 719.215Z" fill="white"/>
<path d="M496.489 719.215C500.67 723.635 504.11 728.529 507.342 733.542C510.515 738.614 513.48 743.775 515.704 749.47C511.523 745.051 508.083 740.156 504.851 735.144C501.678 730.042 498.684 724.881 496.489 719.215Z" fill="white"/>
<path d="M506.216 713.016C510.397 717.435 513.836 722.33 517.068 727.343C520.241 732.415 523.206 737.576 525.43 743.271C521.249 738.851 517.81 733.957 514.578 728.944C511.405 723.842 508.41 718.681 506.216 713.016Z" fill="white"/>
<path d="M517.78 704.087C517.78 704.087 494.918 755.373 518.64 767.238C542.361 779.103 555.467 729.923 517.78 704.087Z" stroke="white" stroke-miterlimit="10"/>
<path d="M511.257 833.977C511.257 833.977 560.212 922.964 592.058 833.977C623.904 744.991 517.78 704.087 517.78 704.087" stroke="white" stroke-miterlimit="10"/>
<path d="M743.787 704.948C743.787 704.948 655.988 712.778 683.683 754.839C711.407 796.9 743.787 704.948 743.787 704.948Z" stroke="white" stroke-miterlimit="10"/>
<path d="M691.065 838.427C691.065 838.427 602.702 798.383 743.785 704.948" stroke="white" stroke-miterlimit="10"/>
<path d="M758.938 784.857C759.353 782.781 760.183 780.882 761.191 779.043C762.17 777.204 763.445 775.543 764.868 774.001C766.321 772.488 768.011 771.094 769.998 770.204C771.955 769.285 774.297 768.84 776.313 769.581C774.267 770.115 772.666 771.064 771.154 772.191C769.671 773.319 768.278 774.624 766.973 776.048C764.304 778.836 761.873 781.891 758.938 784.857Z" fill="white"/>
<path d="M754.697 771.242C755.112 769.166 755.943 767.268 756.951 765.429C757.929 763.589 759.204 761.928 760.628 760.386C762.081 758.873 763.771 757.479 765.757 756.589C767.714 755.67 770.057 755.225 772.073 755.966C770.027 756.5 768.426 757.449 766.914 758.577C765.431 759.704 764.038 761.009 762.733 762.433C760.064 765.221 757.633 768.276 754.697 771.242Z" fill="white"/>
<path d="M748.768 759.377C749.183 757.301 750.013 755.403 751.021 753.564C752 751.725 753.275 750.064 754.698 748.521C756.151 747.008 757.841 745.614 759.828 744.724C761.785 743.805 764.127 743.36 766.143 744.102C764.098 744.635 762.496 745.585 760.984 746.712C759.502 747.839 758.108 749.144 756.803 750.568C754.135 753.356 751.703 756.411 748.768 759.377Z" fill="white"/>
<path d="M742.837 750.479C743.519 747.958 744.646 745.644 745.95 743.419C747.255 741.195 748.856 739.148 750.665 737.279C752.503 735.44 754.579 733.72 757.04 732.622C759.442 731.495 762.289 730.902 764.809 731.673C762.259 732.177 760.154 733.275 758.197 734.639C756.269 736.004 754.46 737.606 752.8 739.356C749.331 742.796 746.306 746.682 742.837 750.479Z" fill="white"/>
<path d="M736.373 743.36C737.055 740.839 738.182 738.525 739.487 736.3C740.791 734.076 742.392 732.029 744.201 730.16C746.04 728.321 748.115 726.601 750.576 725.503C752.978 724.376 755.825 723.783 758.345 724.554C755.795 725.059 753.69 726.156 751.733 727.52C749.805 728.885 747.997 730.487 746.336 732.237C742.896 735.678 739.842 739.563 736.373 743.36Z" fill="white"/>
<path d="M730.442 731.495C731.124 728.974 732.251 726.66 733.556 724.436C734.861 722.211 736.462 720.164 738.27 718.296C740.109 716.457 742.185 714.736 744.646 713.639C747.047 712.511 749.894 711.918 752.414 712.689C749.864 713.194 747.759 714.291 745.802 715.656C743.875 717.02 742.066 718.622 740.405 720.372C736.966 723.813 733.912 727.698 730.442 731.495Z" fill="white"/>
<path d="M724.779 723.13C725.461 720.609 726.588 718.296 727.893 716.071C729.197 713.846 730.799 711.8 732.607 709.931C734.446 708.092 736.521 706.371 738.983 705.274C741.384 704.147 744.231 703.554 746.751 704.325C744.201 704.829 742.096 705.926 740.139 707.291C738.212 708.655 736.403 710.257 734.742 712.007C731.273 715.448 728.249 719.334 724.779 723.13Z" fill="white"/>
<path d="M517.188 703.465L539.337 734.313" stroke="white" stroke-miterlimit="10"/>
<path d="M328.513 473.584L373.347 488.415C373.347 488.415 382.242 500.28 370.381 503.246C358.521 506.212 334.799 491.381 334.799 491.381C334.799 491.381 322.227 488.415 328.513 473.584Z" fill="black"/>
<path d="M535.66 713.579C546.483 719.541 556.357 727.194 565.163 735.885C573.881 744.665 581.561 754.661 586.987 765.933C589.715 771.539 592.028 777.382 593.629 783.433C595.171 789.514 596.12 795.743 596.268 802.002C596.446 814.519 594.014 827.007 589.329 838.456L589.063 838.367C592.117 826.443 594.014 814.252 593.332 802.12C593.066 796.069 592.117 790.048 590.812 784.145C589.448 778.242 587.402 772.488 584.882 766.941C579.841 755.848 572.546 745.822 564.125 736.923C555.704 728.054 546.127 720.105 535.541 713.846L535.66 713.579Z" fill="black"/>
<path d="M797.396 538.84C797.396 538.84 794.135 550.675 773.527 553.671C752.919 556.638 631.346 612.995 631.346 612.995L548.321 577.401C548.321 577.401 490.322 571.113 508.943 541.629C527.565 512.145 767.745 506.212 797.396 538.84Z" fill="black"/>
<path d="M490.411 549.014C490.411 549.014 586.868 589.266 699.545 568.502C812.222 547.739 814.387 541.629 814.387 541.629L742.333 612.995L646.142 660.455L518.64 604.097L490.411 549.014Z" fill="#53B9C4"/>
<path d="M907.109 529.942C907.109 529.942 901.178 467.651 580.938 672.319L607.625 704.948C607.625 704.948 1019.79 642.657 907.109 529.942Z" fill="#57CEE2"/>
<path d="M512.738 562.57C512.738 562.57 417.853 497.314 367.445 526.976C317.036 556.638 343.723 624.86 429.713 651.556C515.704 678.252 672.858 716.812 672.858 716.812L675.823 654.522L512.738 562.57Z" fill="#57CEE2"/>
<path d="M553.184 241.33C553.184 241.33 577.973 227.804 577.973 208.316C577.973 188.828 577.973 173.286 577.973 173.286C577.973 173.286 572.043 165.099 569.077 153.234C569.077 153.234 551.286 147.302 548.321 135.437C545.356 123.572 542.391 117.64 554.251 111.707C554.251 111.707 561.131 108.741 563.621 111.707C563.621 111.707 548.321 58.3155 580.938 55.3493H610.59L663.963 79.079C663.963 79.079 666.928 96.8762 663.963 114.673C663.963 114.673 666.928 108.741 675.824 111.707C684.719 114.673 678.789 132.471 669.894 144.335C660.998 156.2 655.068 144.335 655.068 144.335C655.068 144.335 655.068 156.2 649.137 168.065V200.693C649.137 200.693 652.102 224.423 672.859 233.322C693.615 242.22 667.373 302.464 667.373 302.464L578.418 276.865L553.184 241.33Z" fill="#FFC39E"/>
<path d="M548.322 236.288C548.322 236.288 506.631 243.347 490.412 262.064C490.412 262.064 447.505 262.984 432.68 349.003C417.854 435.023 426.749 437.989 426.749 437.989C426.749 437.989 459.366 429.091 500.879 470.618L499.752 554.383C499.752 554.383 508.173 569.481 519.352 558.625L521.635 550.705L539.426 574.435C539.426 574.435 752.919 503.246 797.397 538.84C797.397 538.84 752.919 479.516 749.954 440.956C749.954 440.956 770.71 432.057 785.536 435.023C785.536 435.023 797.397 262.984 726.232 257.051C726.232 257.051 687.685 236.288 672.859 233.321C672.859 233.321 658.033 262.984 613.556 262.984C569.078 262.984 548.322 236.288 548.322 236.288Z" fill="#FFAC00"/>
<path d="M500.877 470.618V385.161C500.877 385.161 675.823 544.773 749.952 440.956C749.952 440.956 764.778 497.313 797.395 538.84C797.395 538.84 729.196 518.077 539.424 574.435L521.633 550.705C521.633 550.705 519.35 575.859 499.75 554.383L500.877 470.618Z" fill="#FFB339"/>
<path d="M673.393 699.431L674.786 654.463L675.32 655.412L570.353 597.719L544.111 583.333C535.452 578.38 526.764 573.486 518.195 568.354C500.967 558.299 483.858 547.976 466.897 537.417L467.164 536.883C476.297 540.946 485.311 545.307 494.236 549.815C503.221 554.235 511.998 558.951 520.834 563.608C529.7 568.235 538.418 573.1 547.135 577.935C555.794 582.888 564.452 587.901 573.051 592.944C607.477 613.203 642.051 633.136 676.358 653.573L676.921 653.899L676.892 654.522L674.015 699.431H673.393Z" fill="black"/>
<path d="M908.799 459.761C911.764 460.414 914.7 461.215 917.576 462.194C918.999 462.698 920.571 462.995 921.846 463.914C923.091 464.804 924.396 465.901 925.018 467.563L924.811 467.77C923.21 467.414 921.846 467.058 920.482 466.524C919.088 466.05 917.932 465.071 916.627 464.359L908.71 460.058L908.799 459.761Z" fill="black"/>
<path d="M927.924 479.605L927.034 480.584L926.827 480.821L926.767 480.881C926.738 480.91 926.797 480.851 926.797 480.821V480.732C926.797 480.584 926.501 480.584 926.53 480.614L926.649 480.525L927.153 480.08L929.169 478.33C930.533 477.173 931.927 476.075 933.35 474.978C936.226 472.872 939.221 470.885 942.453 469.253C945.656 467.651 949.155 466.109 953.009 466.198C956.864 466.139 960.808 468.541 962.083 471.982L961.905 472.101C959.533 469.372 956.33 468.156 953.039 468.423C949.777 468.601 946.427 469.52 943.224 470.885C940.022 472.249 936.968 473.999 934.002 475.898C932.52 476.847 931.037 477.826 929.614 478.864L927.479 480.436L926.945 480.821L926.797 480.94C926.827 480.97 926.53 480.999 926.5 480.851C926.471 480.762 926.5 480.792 926.5 480.732C926.5 480.673 926.56 480.614 926.56 480.614L926.619 480.554L926.856 480.317L927.835 479.427L927.924 479.605Z" fill="black"/>
<path d="M881.874 516.475C889.317 515.2 896.641 513.39 903.905 511.344C911.17 509.327 918.316 506.954 925.344 504.254C932.401 501.585 939.221 498.47 946.07 495.326C952.979 492.36 959.562 488.712 966.352 485.36L966.471 485.538C960.333 489.987 953.839 493.962 947.019 497.313C940.229 500.754 933.112 503.454 925.966 505.886C911.644 510.869 896.908 514.606 881.904 516.653L881.874 516.475Z" fill="black"/>
<path d="M951.615 479.665C947.197 481.296 942.957 483.343 938.746 485.449C934.536 487.555 930.384 489.779 926.292 492.093C922.2 494.436 918.108 496.928 913.661 498.708C911.437 499.568 909.183 500.398 906.841 500.992C904.498 501.555 902.126 502.119 899.665 501.941V501.644C904.113 500.22 908.264 498.025 912.445 496.008C916.626 493.932 920.896 492.063 925.166 490.017C933.676 485.894 942.364 482.008 951.496 479.398L951.615 479.665Z" fill="black"/>
<path d="M367.505 527.094C357.512 533.353 348.913 542.34 344.555 553.226C342.449 558.655 341.56 564.557 342.034 570.341C342.509 576.125 344.317 581.761 346.867 586.982C352.057 597.482 360.181 606.203 368.602 614.36C377.053 622.606 386.393 629.873 395.763 637.2L395.585 637.437C385.267 631.475 375.511 624.475 366.556 616.496C357.72 608.427 349.773 598.995 344.703 587.961C342.182 582.473 340.433 576.541 340.107 570.43C339.751 564.35 340.848 558.21 343.161 552.633C348.083 541.51 357.097 532.789 367.357 526.798L367.505 527.094Z" fill="black"/>
<path d="M446.023 656.361C483.769 666.713 521.516 676.976 559.322 687.032L616.076 701.892C634.964 706.994 653.823 712.155 672.859 716.664L672.8 716.961C653.407 714.113 634.371 709.338 615.335 704.77C596.328 700.053 577.528 694.625 558.7 689.316C521.012 678.726 483.443 667.811 445.934 656.628L446.023 656.361Z" fill="black"/>
<path d="M556.445 243.94C564.896 249.576 574.207 253.907 583.814 257.021C593.421 260.166 603.473 262.034 613.496 261.886C623.547 261.827 633.422 259.513 642.614 255.746C651.895 252.009 660.286 246.284 668.144 239.817L668.351 240.025C661.62 247.737 653.199 254.085 643.77 258.445C634.281 262.746 623.755 264.496 613.466 264.229C603.117 264.081 592.947 261.827 583.31 258.386C573.703 254.826 564.54 250.11 556.268 244.118L556.445 243.94Z" fill="black"/>
<path d="M738.241 331.206C738.33 349.508 739.813 367.809 742.125 385.962C744.409 404.115 747.789 422.12 752.296 439.828C754.609 448.668 757.248 457.418 760.213 466.05C763.238 474.652 766.499 483.165 770.146 491.529C773.794 499.894 777.886 508.021 782.363 515.971C786.959 523.831 791.97 531.484 797.515 538.781L797.278 538.959C791.14 532.137 785.595 524.78 780.584 517.009C775.691 509.208 771.392 501.051 767.418 492.716C763.653 484.321 760.302 475.719 757.426 466.969C754.638 458.189 752.148 449.32 750.013 440.392C745.773 422.506 742.659 404.382 740.672 386.14C738.745 367.898 737.648 349.537 737.945 331.206H738.241Z" fill="black"/>
<path d="M712.74 328.24C712.74 328.24 652.547 327.231 641.932 329.219C641.932 329.219 649.137 343.071 663.963 343.071C678.789 343.071 717.336 328.24 717.336 328.24H712.74Z" fill="#D18909"/>
<path d="M641.932 329.219L646.172 399.429L684.719 423.158L723.267 399.429L717.336 328.24C717.336 328.24 667.373 347.995 641.932 329.219Z" fill="#F9B946"/>
<path d="M554.251 111.707C554.251 111.707 527.565 64.2479 539.425 40.5183C551.286 16.7887 567.002 25.7763 578.418 33.1621C578.418 33.1621 593.688 23.522 578.418 8.30537C578.418 8.30537 592.799 13.8522 589.833 25.717C589.833 25.717 608.099 12.9623 607.862 0.0593262C607.862 0.0593262 610.59 7.91976 604.659 19.7846C604.659 19.7846 625.416 -6.91125 643.207 4.95356C660.998 16.8184 658.033 31.6494 658.033 31.6494C658.033 31.6494 688.9 23.7889 683.83 55.8832C678.789 88.0072 663.963 114.703 663.963 114.703C663.963 114.703 658.033 88.0072 663.963 79.1086C663.963 79.1086 637.276 82.0748 622.45 70.21C622.45 70.21 628.381 82.0748 643.207 82.0748C643.207 82.0748 628.381 88.0072 589.833 58.3452C589.833 58.3452 555.2 52.4128 563.621 111.737C563.621 111.707 557.217 108.741 554.251 111.707Z" fill="#FFE58B"/>
<path d="M546.69 62.7945C545.682 59.6207 545.089 56.2985 544.911 52.9171C544.793 49.5356 545.119 46.0651 546.364 42.743C547.61 39.4802 550.011 36.2767 553.362 34.7936C556.624 33.1325 560.301 33.1028 563.622 33.6368V33.9334C562.02 34.5563 560.419 34.8529 558.937 35.4165C557.484 36.0394 556.001 36.514 554.785 37.4038C552.295 38.9463 549.952 40.8743 548.559 43.6922C547.195 46.4804 546.572 49.6839 546.394 52.9171C546.186 56.1502 546.364 59.4724 546.987 62.7055L546.69 62.7945Z" fill="white"/>
<path d="M594.4 53.7773C596.15 55.9129 598.107 57.8706 600.153 59.68C602.169 61.5487 604.274 63.2691 606.498 64.8115C608.752 66.354 611.183 67.4218 613.466 68.7862C615.779 70.0914 618.151 71.1592 620.761 72.4347L620.731 72.7313C617.855 73.0872 614.919 72.5237 612.221 71.4855C609.523 70.388 607.269 68.5193 605.075 66.7396C600.775 63.0318 597.099 58.7308 594.163 53.9849L594.4 53.7773Z" fill="white"/>
<path d="M651.628 30.4332C651.688 25.45 651.035 20.2888 648.841 15.9581C647.774 13.7928 646.232 11.8945 644.245 10.7376C642.229 9.61048 639.857 9.37318 637.544 9.49183C632.71 9.99608 628.114 11.6868 623.815 13.8818C619.456 16.0471 615.423 18.9244 611.687 22.3058L611.45 22.1278C614 17.6489 617.914 13.9708 622.392 11.2715C626.899 8.51298 632.206 7.3265 637.425 7.11887C640.123 7.11887 642.911 7.59346 645.283 9.10622C647.596 10.6486 649.197 12.9623 650.205 15.3649C652.192 20.2591 652.37 25.4797 651.925 30.4925L651.628 30.4332Z" fill="white"/>
<path d="M588.173 30.3146C589.507 29.6324 590.812 28.8315 592.028 28.001C593.273 27.2001 594.459 26.3399 595.556 25.3611C596.653 24.4119 597.484 23.255 598.462 22.3652C599.47 21.4457 600.389 20.5855 601.546 19.3397L601.842 19.399C602.287 21.1194 601.664 22.8991 600.745 24.2932C599.826 25.7467 598.284 26.5179 596.95 27.3187C594.222 28.9205 591.286 29.9587 588.291 30.6112L588.173 30.3146Z" fill="white"/>
<path d="M666.395 33.6367C668.737 33.2511 671.139 34.141 672.918 35.6834C673.896 36.3953 674.519 37.4334 675.231 38.3826C675.735 39.4505 676.446 40.4293 676.743 41.5861C678.285 46.0354 678.641 50.7517 678.552 55.3493C678.522 56.5061 678.552 57.663 678.522 58.8198L678.255 62.2606C678.137 63.4174 678.077 64.5742 677.899 65.7014L677.217 69.0828C676.298 73.5915 674.786 77.9221 673.007 82.1638L672.71 82.1045C672.918 77.4772 673.778 73.0575 674.282 68.5786C674.667 66.3539 675.023 64.1589 675.32 61.9343L675.853 58.6121C676.002 57.5146 676.061 56.3875 676.18 55.29C676.565 50.8407 676.506 46.3321 675.349 42.0904C674.786 39.9844 673.867 37.9377 672.355 36.3953C670.872 34.8529 668.707 33.8147 666.483 33.9927L666.395 33.6367Z" fill="white"/>
<path d="M626.988 65.6421C629.449 67.5701 632.384 68.8456 635.29 69.8837C638.226 70.9516 641.25 71.6931 644.304 72.227C647.359 72.8203 650.502 72.7906 653.556 73.3245C655.098 73.5618 656.64 73.7398 658.211 74.0364C659.783 74.244 661.325 74.5407 662.926 74.9559V75.2526C659.753 76.0831 656.551 76.3501 653.319 76.2611C650.087 76.1424 646.914 75.4009 643.8 74.511C640.687 73.6508 637.633 72.6126 634.727 71.2185C631.851 69.7651 629.063 68.104 626.78 65.82L626.988 65.6421Z" fill="white"/>
<path d="M548.321 236.406C542.984 237.118 537.706 238.245 532.517 239.61C527.328 241.004 522.228 242.695 517.246 244.712C512.294 246.788 507.52 249.25 502.984 252.098C498.506 255.064 494.414 258.505 490.826 262.42L490.648 262.598H490.382C486.912 262.776 483.384 263.992 480.152 265.445C476.86 266.899 473.836 268.886 470.96 271.022L466.838 274.492C465.474 275.649 464.347 277.103 463.072 278.378C460.493 280.899 458.476 283.925 456.341 286.832C448.068 298.726 442.82 312.4 438.402 326.164C434.458 340.134 431.434 354.343 429.329 368.729L427.846 379.526C427.312 383.115 426.778 386.733 426.541 390.352L424.525 412.124H424.317L425.296 390.263C425.414 386.615 425.8 382.966 426.215 379.348L427.46 368.462L428.083 363.004C428.32 361.194 428.706 359.415 429.002 357.605L430.989 346.808C431.345 345.029 431.612 343.19 432.057 341.44L433.45 336.13L436.267 325.511C440.863 311.629 446.438 297.896 454.977 285.853C457.201 282.916 459.277 279.861 461.946 277.31C463.25 276.005 464.407 274.581 465.83 273.395L470.1 269.865C473.095 267.729 476.208 265.712 479.618 264.259C483.028 262.806 486.527 261.589 490.382 261.411L489.937 261.619C493.643 257.615 497.913 254.204 502.48 251.267C507.105 248.449 511.968 246.046 516.979 244C522.02 242.042 527.18 240.411 532.398 239.106C537.647 237.8 542.925 236.762 548.292 236.139L548.321 236.406Z" fill="black"/>
<path d="M600.064 70.299C597.247 70.2397 594.46 70.299 591.673 70.4176C590.279 70.5066 588.915 70.8032 587.551 70.7439C586.187 70.6846 584.823 70.6253 583.341 70.299L583.281 70.0913C584.527 69.2015 585.98 68.7862 587.403 68.5489C588.826 68.3116 590.279 68.5489 591.702 68.6676C594.549 68.9345 597.336 69.4091 600.094 70.0913L600.064 70.299Z" fill="black"/>
<path d="M607.981 0C608.544 2.75857 607.832 5.57646 606.854 8.15706C605.786 10.708 604.333 13.1403 602.614 15.3353C601.813 16.4921 600.864 17.5006 599.975 18.5684C599.026 19.5769 598.018 20.5558 596.95 21.416C594.786 23.1364 592.443 24.6195 589.893 25.7466L589.774 25.5687C590.664 24.5008 591.642 23.522 592.621 22.6025C593.57 21.6236 594.519 20.6744 595.497 19.7549C597.395 17.8565 599.471 16.1658 601.25 14.1784C603.058 12.2208 604.6 10.0258 605.846 7.68246C607.061 5.33916 608.01 2.69924 607.773 0.029662L607.981 0Z" fill="black"/>
<path d="M631.465 577.46C629.478 582.799 627.936 588.346 627.136 593.952C626.721 596.741 626.513 599.558 626.81 602.287C627.106 604.957 627.996 607.656 629.923 609.139C630.872 609.851 632.058 610.266 633.274 610.474C634.43 610.563 636.091 610.741 637.633 610.919C639.174 611.334 640.746 611.839 642.14 612.966C642.851 613.44 643.326 614.271 643.859 614.923C644.275 615.665 644.601 616.495 644.868 617.296C645.579 620.619 644.838 623.703 643.8 626.462C642.703 629.22 641.28 631.801 639.471 634.085L639.204 633.937C640.272 631.267 641.191 628.568 641.814 625.869C642.377 623.199 642.703 620.411 642.021 618.127C641.398 615.843 639.412 614.508 636.951 613.826C635.646 613.618 634.49 613.381 632.799 613.114C631.228 612.758 629.656 612.076 628.411 610.978C625.831 608.724 625.09 605.402 624.882 602.465C624.734 599.469 625.09 596.563 625.653 593.715C626.869 588.05 628.826 582.592 631.169 577.371L631.465 577.46Z" fill="black"/>
<path d="M499.633 554.383L498.862 449.973L498.654 423.87V397.768C498.862 380.356 499.01 362.974 499.662 345.563H499.9C500.522 362.974 500.7 380.356 500.908 397.768V423.87L500.7 449.973L499.929 554.383H499.633Z" fill="black"/>
<path d="M566.111 129.504C566.111 129.504 569.076 135.437 563.146 138.403C557.216 141.369 569.076 153.234 569.076 153.234C569.076 153.234 566.111 162.133 563.146 156.2C560.181 150.268 542.39 126.538 566.111 129.504Z" fill="white"/>
<path d="M564.63 154.717C564.63 154.717 580.938 227.389 515.704 295.612C450.47 363.834 425.829 435.646 472.976 440.511C520.122 445.375 573.525 329.723 262.181 255.568C-49.1632 181.413 -141.529 813.214 322.76 690.117C322.76 690.117 466.779 644.14 383.753 498.797H376.34" stroke="white" stroke-miterlimit="10"/>
<path d="M499.721 373.623C499.721 373.623 545.326 440.956 465.266 449.854C385.206 458.753 372.812 345.77 435.347 335.537C497.883 325.274 563.799 372.733 634.608 423.158C705.416 473.584 800.332 489.275 858.153 454.749C858.153 454.749 876.774 447.778 891.926 451.782" stroke="white" stroke-miterlimit="10"/>
<path d="M882.793 449.083C882.793 449.083 880.391 446.888 883.357 446.888C886.322 446.888 901.088 452.82 899.636 446.888C898.183 440.956 909.569 434.697 911.289 448.193C913.008 461.689 904.113 464.685 898.183 458.753C892.252 452.82 879.265 457.21 882.793 449.083Z" fill="white"/>
<path d="M577.974 173.286C613.556 202.236 649.138 168.065 649.138 168.065C649.138 168.065 655.068 150.268 649.138 168.065C643.208 185.862 625.417 200.693 607.625 200.693C589.834 200.693 577.974 173.286 577.974 173.286Z" fill="#F4A173"/>
<path d="M572.042 87.9775C572.042 87.9775 572.042 76.1127 583.903 76.1127C595.764 76.1127 601.694 76.1127 601.694 76.1127C601.694 76.1127 604.659 73.1465 604.659 70.1803L601.694 73.1465C601.694 73.1465 604.452 70.1803 600.093 70.1803C595.734 70.1803 569.077 64.2479 572.042 87.9775Z" fill="#FFE58B"/>
<path d="M601.695 111.707C601.695 111.707 607.033 117.64 613.26 114.673C619.486 111.707 601.695 129.504 601.695 111.707Z" fill="black"/>
<path d="M578.329 33.2511C575.215 30.8782 571.746 28.9205 568.129 27.467C564.511 26.0432 560.597 25.183 556.772 25.5983C552.947 25.9543 549.418 27.8526 546.868 30.6705L545.86 31.679L545.059 32.8655C544.526 33.6664 543.933 34.4079 543.458 35.2385C542.658 36.9885 541.62 38.6199 541.116 40.4886C538.477 47.7558 538.299 55.6756 538.803 63.3877C539.307 71.1592 540.878 78.8713 543.013 86.4648L542.806 86.5538C539.485 79.3459 537.528 71.5448 536.609 63.5954C536.193 59.6207 536.223 55.5866 536.579 51.5822C537.172 47.6075 537.854 43.6032 539.455 39.8657C540.048 37.9377 541.205 36.2173 542.094 34.4079C542.628 33.5477 543.28 32.7469 543.844 31.9163L544.733 30.7002L545.83 29.6323C548.647 26.6958 552.591 24.7381 556.653 24.4712C560.745 24.1745 564.719 25.2424 568.366 26.8145C572.013 28.4162 575.393 30.5222 578.447 33.0435L578.329 33.2511Z" fill="black"/>
<path d="M604.57 19.6956C607.862 15.1277 611.746 10.975 616.283 7.53418C620.82 4.18237 626.216 1.48313 632.147 1.33482C638.047 1.09752 643.948 3.73744 647.981 7.86046C652.102 11.9538 655.127 16.9074 657.232 22.1576L657.024 22.2762C653.822 17.6489 650.59 13.0513 646.468 9.52153C642.495 5.90277 637.573 3.20352 632.147 3.1442C626.75 3.08487 621.472 5.36885 616.935 8.48336C612.369 11.5979 608.247 15.5133 604.778 19.8736L604.57 19.6956Z" fill="black"/>
<path d="M589.893 58.2266C593.6 61.5784 597.603 64.5446 601.754 67.2735C605.905 70.0321 610.235 72.4643 614.712 74.5407C619.219 76.617 623.934 78.0408 628.619 79.4053C633.333 80.7697 638.196 81.3926 643.207 81.8969V82.1045C638.226 82.8757 633.066 82.5791 628.085 81.5409C623.133 80.4138 618.418 78.4264 613.941 76.1128C604.986 71.4558 596.832 65.4344 589.745 58.3452L589.893 58.2266Z" fill="black"/>
<path d="M622.511 70.0914C625.476 72.1677 628.767 73.7398 632.118 75.0153C635.468 76.3204 638.938 77.3289 642.466 77.9221C645.995 78.4857 649.553 78.723 653.111 78.8417C654.89 79.0196 656.669 78.901 658.478 78.99C660.287 79.0196 662.066 78.8713 663.934 78.9603L663.964 79.1679C660.465 80.2951 656.788 80.9773 653.082 81.0367C649.375 81.2146 645.669 80.4731 642.081 79.6425C638.493 78.812 634.994 77.5662 631.673 76.0238C628.352 74.4517 625.179 72.583 622.362 70.2397L622.511 70.0914Z" fill="black"/>
<path d="M658.002 31.5307C662.301 30.3146 666.868 29.8103 671.345 30.6112C673.569 31.0265 675.763 31.7977 677.691 33.0731C679.618 34.319 681.219 36.1283 682.346 38.1157C684.57 42.2091 685.015 46.9253 684.955 51.4339C684.807 55.9722 684.007 60.4512 683.028 64.8115C681.19 73.5618 679.114 82.3121 676.119 90.7954C673.006 99.1601 669.596 107.643 664.051 114.792L663.873 114.644C668.261 106.902 671.286 98.5076 673.984 90.0539C676.683 81.6002 679.203 73.0575 681.249 64.3962C682.346 60.0656 683.206 55.7646 683.473 51.3449C683.651 46.9846 683.325 42.476 681.338 38.6199C679.44 34.7046 675.497 32.0943 671.197 31.2341C666.897 30.3146 662.331 30.6705 658.032 31.7384L658.002 31.5307Z" fill="black"/>
<path d="M571.924 87.9776C572.102 84.8037 572.843 81.5706 574.8 78.7823C575.779 77.4179 577.113 76.0534 578.833 75.5492C580.553 74.9856 582.391 75.3119 583.874 76.0238L583.844 76.2314C582.213 76.706 580.819 76.9136 579.604 77.5959C578.418 78.2188 577.172 78.8417 576.164 79.8798C575.156 80.918 574.355 82.2231 573.703 83.6173C573.021 84.9817 572.458 86.4648 572.102 87.9776H571.924Z" fill="black"/>
<path d="M566.112 129.593C563.117 129.534 560.004 129.86 557.306 131.136C555.971 131.759 554.845 132.767 554.311 134.043C553.807 135.348 553.896 136.831 554.311 138.195C555.082 141.013 557.098 143.357 558.61 146.056C560.034 148.755 561.427 151.573 561.753 154.717L561.605 154.747C560.389 151.988 558.729 149.467 557.276 146.827C555.942 144.157 554.103 141.607 553.303 138.492C552.888 136.979 552.828 135.229 553.51 133.716C554.222 132.204 555.586 131.136 557.039 130.543C559.974 129.356 563.088 129.237 566.112 129.445V129.593Z" fill="black"/>
<path d="M563.147 138.522C561.812 138.967 561.16 140.272 561.457 141.458C561.664 142.645 562.346 143.831 563.117 144.869C563.888 145.937 564.896 146.827 565.667 147.954C566.379 149.111 567.179 150.208 567.683 151.662L567.535 151.81C566.171 151.217 564.985 150.386 563.977 149.378C562.939 148.399 562.257 147.094 561.605 145.789C560.952 144.513 560.359 143.09 560.359 141.518C560.419 140.746 560.597 139.916 561.16 139.323C561.694 138.729 562.405 138.403 563.117 138.314L563.147 138.522Z" fill="black"/>
<path d="M539.307 574.524C536.164 570.697 532.932 566.93 529.848 563.104L520.449 551.625L523.117 550.527C523.355 552.188 523.236 553.642 522.88 555.184C522.524 556.697 521.813 558.18 520.834 559.396C519.856 560.642 518.521 561.591 517.068 562.095C515.675 562.689 514.163 562.778 512.769 562.748L512.739 562.451C514.044 561.917 515.289 561.383 516.297 560.612C517.365 559.9 518.136 558.922 518.759 557.913C519.381 556.875 519.737 555.748 519.974 554.561C520.182 553.404 520.241 552.04 520.182 550.942L519.915 545.574L522.851 549.845L531.242 562.095C534.059 566.159 536.787 570.282 539.574 574.405L539.307 574.524Z" fill="black"/>
<path d="M642.081 329.219L647.596 399.34L646.914 398.213C650.146 400.141 653.408 402.039 656.61 404.056C659.813 406.043 662.985 408.09 666.129 410.166C672.474 414.26 678.701 418.531 684.809 423.01L684.661 423.277C677.93 419.836 671.288 416.218 664.794 412.391C661.533 410.522 658.271 408.624 655.039 406.637C651.807 404.709 648.634 402.632 645.461 400.615L644.809 400.2L644.779 399.488L641.844 329.189L642.081 329.219Z" fill="black"/>
<path d="M648.633 332.897C654.06 335.003 659.931 335.715 665.713 336.011C671.524 336.308 677.336 335.893 683.089 335.151C688.841 334.439 694.475 332.927 700.168 331.829C703.015 331.236 705.832 330.524 708.708 329.99C711.525 329.278 714.371 328.596 717.307 328.092L717.396 328.359C714.757 329.664 712.029 330.821 709.301 331.948C706.514 332.927 703.726 333.876 700.88 334.706C695.157 336.219 689.256 337.109 683.356 337.495C677.455 337.969 671.524 338.058 665.624 337.465C659.753 336.753 653.882 335.655 648.515 333.134L648.633 332.897Z" fill="black"/>
<path d="M726.202 256.903C730.502 256.814 734.683 257.971 738.597 259.572C742.54 261.204 746.187 263.488 749.508 266.128C756.21 271.437 761.488 278.348 765.817 285.616C770.116 292.972 773.408 300.892 776.076 308.96C777.5 312.964 778.538 317.087 779.694 321.18C780.613 325.333 781.71 329.426 782.422 333.638C785.654 350.309 787.433 367.275 787.759 384.242C787.996 401.209 787.374 418.175 785.654 434.994L785.357 434.964C785.387 418.027 785.595 401.149 784.794 384.301C784.082 367.483 782.985 350.635 780.109 334.054C779.486 329.901 778.449 325.808 777.618 321.685C776.551 317.621 775.602 313.528 774.268 309.523C771.777 301.514 768.663 293.654 764.542 286.328C760.42 279.06 755.409 272.149 748.945 266.78C745.743 264.081 742.184 261.767 738.359 260.077C734.534 258.386 730.413 257.17 726.202 257.14V256.903Z" fill="black"/>
<path d="M649.285 168.065C649.641 178.951 649.996 189.807 650.204 200.693L650.174 200.515C650.916 203.808 652.072 207.1 653.466 210.215C654.859 213.359 656.549 216.295 658.299 219.173C660.137 221.991 662.183 224.69 664.644 227.063C667.017 229.495 669.863 231.393 672.888 233.203L672.769 233.47C669.359 232.521 666.038 230.978 663.162 228.754C660.375 226.47 657.765 223.859 655.779 220.834C653.733 217.868 652.191 214.575 650.916 211.223C649.67 207.842 648.692 204.46 648.039 200.871L648.01 200.782V200.693C648.247 189.807 648.573 178.951 648.929 168.065H649.285Z" fill="black"/>
<path d="M553.124 241.182C559.173 237.444 564.51 232.61 568.84 227.092C571.004 224.334 572.754 221.279 574.177 218.135C575.57 214.961 576.282 211.55 576.608 208.168V208.316C576.401 203.155 576.371 198.024 576.608 192.862C576.816 187.701 577.172 182.57 577.824 177.409H578.121C578.773 182.57 579.129 187.701 579.336 192.862C579.573 198.024 579.514 203.155 579.336 208.316V208.435C578.743 212.113 577.765 215.702 576.104 219.024C574.473 222.317 572.457 225.402 570.085 228.131C567.713 230.889 565.044 233.351 562.227 235.576C559.381 237.771 556.415 239.788 553.243 241.449L553.124 241.182Z" fill="black"/>
<path d="M675.853 111.559C678.225 112.271 679.856 114.466 680.538 116.809C681.22 119.182 681.072 121.674 680.657 124.047C679.767 128.822 677.781 133.212 675.646 137.454C674.608 139.589 673.451 141.695 672.147 143.713C671.524 144.751 670.723 145.7 669.982 146.679C669.093 147.569 668.262 148.488 667.195 149.289C666.157 150.06 664.912 150.713 663.518 151.069C662.065 151.306 660.523 151.098 659.307 150.357C656.965 148.844 655.779 146.619 654.919 144.424L655.186 144.276C656.728 146.026 658.388 147.776 660.256 148.518C661.175 148.814 662.065 148.785 662.925 148.547C663.785 148.191 664.615 147.717 665.386 146.975C668.529 144.187 671.168 140.212 673.57 136.327C675.912 132.322 678.077 128.199 679.204 123.75C679.797 121.555 680.123 119.241 679.678 117.017C679.263 114.851 677.929 112.686 675.794 111.855L675.853 111.559Z" fill="black"/>
<path d="M563.533 111.826C560.36 110.639 556.891 111.262 554.282 112.834C552.918 113.606 551.969 114.911 550.664 115.801C550.042 116.305 549.419 116.809 548.707 117.284C548.055 117.818 547.343 118.292 546.483 118.737L546.246 118.559C546.572 116.69 547.432 115.089 548.589 113.665C549.804 112.271 551.494 111.351 553.244 110.699C554.964 110.016 556.832 109.69 558.67 109.809C560.479 109.987 562.228 110.55 563.681 111.559L563.533 111.826Z" fill="black"/>
<path d="M582.213 58.8791C577.172 59.68 572.872 63.1208 570.174 67.2438C567.357 71.3965 565.786 76.2611 564.896 81.2146C564.57 83.7062 564.273 86.2275 564.155 88.7488L564.036 92.5455C563.917 93.7913 563.888 95.0668 563.947 96.3423C563.977 98.8932 563.799 101.414 563.858 103.995C563.888 106.546 563.918 109.127 563.769 111.737L563.473 111.767C562.109 106.754 561.219 101.592 561.012 96.3719C560.774 93.7617 561.101 91.1218 561.249 88.5412C561.545 85.9309 562.049 83.3503 562.583 80.7697C563.799 75.6678 565.756 70.6253 568.988 66.4133C572.19 62.2606 576.964 59.0571 582.213 58.6418V58.8791Z" fill="black"/>
<path d="M457.853 441.519C457.319 450.447 457.052 459.405 457.112 468.334C457.112 472.813 457.2 477.262 457.467 481.711C457.734 486.161 458.12 490.58 458.92 494.911L459.217 496.453L457.616 496.364C449.372 495.86 441.129 495.474 432.886 494.585C428.794 494.11 424.672 493.724 420.581 493.131C416.489 492.597 412.397 492.004 408.305 491.262L408.334 490.966C412.486 490.907 416.607 490.996 420.758 491.114C424.88 491.203 429.002 491.5 433.153 491.678C441.396 492.123 449.61 493.072 457.823 493.902L456.519 495.326C455.303 486.279 455.362 477.292 455.629 468.304C455.955 459.346 456.667 450.388 457.586 441.49L457.853 441.519Z" fill="black"/>
<path d="M331.714 476.491C333.404 471.656 335.717 467.058 338.593 462.787C341.529 458.545 345.028 454.63 349.475 451.664C353.923 448.668 359.498 447.303 364.716 447.659C369.994 447.837 374.857 449.558 379.868 449.647L379.928 449.943C377.437 450.833 374.739 450.744 372.189 450.744C369.639 450.715 367.118 450.566 364.657 450.626C359.765 450.685 354.902 451.248 350.691 453.681C346.48 456.113 342.863 459.732 339.779 463.647C336.666 467.563 334.027 471.952 331.981 476.58L331.714 476.491Z" fill="black"/>
<path d="M355.702 464.774C353.686 467.918 351.195 470.766 348.23 473.198C346.747 474.385 345.235 475.69 343.367 476.342C341.499 476.965 339.483 477.203 337.526 476.728L337.496 476.431C339.157 475.304 340.669 474.533 342.181 473.643C343.634 472.724 345.354 472.19 346.896 471.27C349.95 469.431 352.856 467.177 355.495 464.626L355.702 464.774Z" fill="black"/>
<path d="M372.041 466.168C372.901 469.906 373.88 473.614 375.066 477.203C375.659 478.982 376.548 480.673 376.993 482.453C377.468 484.233 377.912 485.983 378.298 488L378.061 488.178C376.281 487.021 375.125 485.271 374.236 483.491C373.316 481.711 373.138 479.694 372.783 477.766C372.071 473.91 371.774 470.054 371.774 466.198L372.041 466.168Z" fill="black"/>
<path d="M304.227 462.49C303.308 462.401 302.329 462.401 301.439 462.579C300.55 462.757 299.66 463.173 299.364 463.944C298.741 465.486 299.838 467.355 300.52 469.046C302.092 472.486 303.99 475.809 305.976 479.012L305.828 478.834C308.319 481.237 310.661 483.758 312.855 486.457C313.953 487.792 315.02 489.216 315.969 490.729C316.443 491.47 316.918 492.39 317.244 492.716C317.629 493.19 318.163 493.665 318.815 494.051C321.306 495.741 324.568 496.78 327.711 497.877C330.913 498.915 334.175 499.805 337.496 500.725L337.466 501.021C333.997 501.11 330.558 500.784 327.148 500.191C323.738 499.508 320.298 498.678 317.096 496.572C316.325 496.068 315.554 495.356 314.901 494.496C314.16 493.487 313.953 492.835 313.567 492.123C312.796 490.699 311.907 489.305 310.928 487.94C308.971 485.211 306.806 482.601 304.523 480.139L304.434 480.021L304.405 479.961C302.537 476.55 300.817 473.109 299.482 469.461C299.156 468.541 298.86 467.622 298.593 466.673C298.356 465.694 298.207 464.567 298.741 463.558C299.275 462.52 300.431 462.164 301.38 462.016C302.359 461.867 303.337 461.956 304.316 462.134L304.227 462.49Z" fill="black"/>
<path d="M297.703 475.215C294.116 473.673 290.202 472.486 286.376 472.724C284.479 472.872 282.64 473.554 281.484 474.948C280.327 476.342 279.912 478.241 279.823 480.11L279.557 479.516C286.465 484.44 294.056 488.504 301.855 491.915L313.537 497.076C315.495 497.936 317.481 498.737 319.409 499.627C321.366 500.458 323.352 501.288 325.339 502.237L325.25 502.534C320.98 501.852 316.71 500.903 312.618 499.508C308.467 498.233 304.464 496.513 300.58 494.585C296.725 492.597 292.959 490.432 289.282 488.148C285.605 485.834 282.018 483.432 278.637 480.673L278.341 480.436L278.37 480.08C278.578 478.063 279.112 475.868 280.594 474.266C282.077 472.635 284.271 471.982 286.288 471.952C288.333 471.893 290.32 472.279 292.248 472.842C294.175 473.406 296.013 474.147 297.792 475.037L297.703 475.215Z" fill="black"/>
<path d="M337.526 507.221C341.678 508.555 345.384 510.869 349.18 512.738C352.975 514.666 356.919 516.268 360.922 517.513C364.954 518.759 369.076 519.441 373.138 519.946C377.23 520.45 381.322 520.42 385.533 519.441L385.651 519.708C382.004 522.23 377.319 523.06 372.901 522.912C368.424 522.763 364.183 521.34 360.121 519.768C356.059 518.196 352.145 516.268 348.438 514.043C344.762 511.789 341.322 509.178 337.438 507.517L337.526 507.221Z" fill="black"/>
<path d="M648.692 576.422C647.209 581.672 646.231 587.041 645.727 592.41C645.46 595.109 645.668 597.779 645.43 600.419C645.223 603.088 645.163 605.699 644.837 608.546L644.541 608.605C643.266 606.054 642.643 603.237 642.465 600.419C642.287 597.601 642.851 594.813 643.384 592.084C644.452 586.626 646.112 581.346 648.425 576.333L648.692 576.422Z" fill="black"/>
<path d="M578.507 8.18671C581.768 11.0046 584.704 14.3861 586.275 18.7464C587.017 20.8821 587.58 23.433 586.631 25.8356C585.712 28.2086 583.696 29.84 581.59 30.6112L581.413 30.3739C582.48 28.3569 583.458 26.7255 583.814 24.9457C584.111 23.2253 584.407 21.3863 584.022 19.3989C583.636 17.4709 582.836 15.5429 581.828 13.7038C580.849 11.8648 579.693 10.0554 578.358 8.424L578.507 8.18671Z" fill="black"/>
<path d="M765.491 436.121C765.61 444.99 766.025 453.829 766.855 462.639C767.241 467.029 767.774 471.419 768.516 475.749C768.901 477.915 769.376 480.05 769.969 482.097C770.324 483.076 770.562 484.173 771.066 485.063C771.303 485.508 771.511 486.012 771.718 486.428C771.985 486.754 772.222 487.11 772.608 487.406C774.001 488.593 776.077 489.245 778.123 489.661C780.199 490.076 782.363 490.254 784.498 490.343C788.827 490.551 793.216 490.432 797.604 490.224C806.381 489.928 815.188 488.978 824.024 488.267L824.083 488.563C815.484 490.936 806.678 492.33 797.782 493.19C793.334 493.517 788.827 493.665 784.32 493.279C782.067 493.072 779.813 492.805 777.53 492.241C775.306 491.678 772.963 490.936 771.006 489.156C770.502 488.741 770.117 488.178 769.731 487.614C769.435 487.05 769.227 486.516 768.99 485.983C768.456 484.885 768.249 483.788 767.893 482.69C767.33 480.495 766.914 478.27 766.588 476.046C765.966 471.626 765.58 467.177 765.343 462.728C764.928 453.829 764.898 444.96 765.165 436.091L765.491 436.121Z" fill="black"/>
<path d="M880.39 458.901C877.959 458.901 875.527 459.168 873.185 459.732C870.872 460.295 868.559 461.215 866.958 462.787C865.298 464.329 864.793 466.584 865.149 468.779L865.505 470.44L866.157 472.041C866.543 473.109 867.166 474.177 867.729 475.215C870.042 479.398 873.185 483.016 876.654 486.042C880.153 488.978 884.423 491.529 889.256 491.262L889.345 491.529C887.003 492.657 884.215 492.39 881.754 491.767C879.234 491.144 876.891 489.868 874.816 488.356C870.635 485.271 867.729 480.821 865.624 476.313C865.12 475.156 864.527 474.058 864.171 472.813L863.548 470.974L863.252 469.016C862.925 466.406 863.845 463.41 865.98 461.719C868.055 459.999 870.576 459.287 873.007 458.871C875.468 458.486 877.959 458.427 880.42 458.634L880.39 458.901Z" fill="black"/>
<path d="M904.557 461.66C904.824 464.151 906.07 466.406 907.76 468.096C909.45 469.787 911.585 470.944 913.868 471.656C915.054 472.101 916.062 472.012 917.723 472.724C918.434 473.109 919.294 473.673 919.769 474.8C920.213 475.987 919.828 477.084 919.413 477.885C918.464 479.338 917.278 480.05 916.122 480.732C914.935 481.385 913.69 481.8 912.385 482.127L912.237 481.86C913.927 479.902 916.033 478.152 916.804 476.491C916.893 476.135 916.922 475.957 916.892 475.898C916.892 475.809 916.685 475.542 916.329 475.304C915.766 474.83 914.165 474.444 913.038 473.88C910.577 472.813 908.323 471.181 906.663 469.075C905.091 466.88 904.172 464.27 904.291 461.66H904.557Z" fill="black"/>
<path d="M657.113 624.86C676.061 612.194 695.394 600.122 714.964 588.465C734.593 576.867 754.49 565.744 774.861 555.451C795.202 545.188 815.928 535.399 837.663 528.221C848.545 524.721 859.665 521.666 871.081 520.272C876.774 519.59 882.556 519.293 888.308 519.916C891.185 520.183 894.002 520.835 896.759 521.636C899.487 522.556 902.126 523.802 904.469 525.433L904.291 525.67C901.859 524.217 899.22 523.179 896.522 522.437C893.764 521.814 891.007 521.34 888.19 521.251C882.586 520.895 876.922 521.429 871.348 522.319C860.198 524.128 849.287 527.272 838.582 531.039C817.174 538.514 796.329 547.62 775.869 557.587C755.439 567.612 735.424 578.439 715.676 589.77C695.928 601.071 676.387 612.817 657.232 625.127L657.113 624.86Z" fill="black"/>
<path d="M686.172 688.485C709.982 684.214 733.585 678.815 756.921 672.616C780.287 666.417 803.415 659.298 825.951 650.636C837.189 646.276 848.308 641.53 859.072 636.161C869.895 630.882 880.421 625.009 890.206 618.097C900.08 611.334 909.272 603.385 916.24 593.715C923.179 584.105 927.123 572.032 925.492 559.96L925.788 559.9C926.915 565.862 926.796 572.091 925.403 578.083C923.979 584.075 921.34 589.711 917.96 594.872C911.14 605.135 901.8 613.381 891.926 620.53C871.911 634.56 849.464 644.437 826.781 652.861C804.038 661.285 780.761 668.107 757.307 674.04C733.822 679.883 710.101 684.866 686.231 688.782L686.172 688.485Z" fill="black"/>
<path d="M791.496 779.251C786.633 781.387 782.126 784.383 778.212 787.912C774.239 791.383 770.858 795.506 768.308 800.044C765.788 804.612 764.009 809.536 762.912 814.579C762.111 817.07 761.963 819.68 761.399 822.261C761.073 823.566 761.162 824.871 761.014 826.206C760.866 827.541 760.747 828.876 760.569 830.21L760.273 830.24C759.858 827.6 759.383 824.871 759.354 822.142C759.442 819.413 759.383 816.655 760.006 813.956C760.806 808.468 763.356 803.396 766.292 798.798C769.228 794.171 772.993 790.107 777.293 786.756C781.592 783.433 786.366 780.764 791.437 778.954L791.496 779.251Z" fill="black"/>
<path d="M692.637 725.563C702.956 725.592 713.215 728.203 722.526 732.741C731.836 737.339 740.02 744.25 746.277 752.614C749.42 756.797 752 761.365 754.283 766.051C756.447 770.797 758.167 775.751 759.383 780.823C761.755 790.967 762.615 801.409 761.963 811.701H761.666C760.628 801.468 759.353 791.323 756.536 781.565C755.884 779.132 755.202 776.67 754.313 774.327C753.571 771.895 752.563 769.581 751.644 767.238C749.628 762.611 747.285 758.132 744.379 753.979C738.567 745.733 730.858 738.792 721.873 734.016C712.948 729.211 702.867 726.245 692.666 725.8L692.637 725.563Z" fill="black"/>
<path d="M717.306 695.901C722.821 695.13 728.455 696.049 733.762 697.74C739.07 699.519 744.022 702.278 748.559 705.571C753.184 708.774 757.247 712.719 760.775 717.05C762.436 719.304 764.007 721.618 765.49 723.961C766.824 726.423 768.099 728.885 769.226 731.406L768.959 731.554C767.121 729.448 765.431 727.283 763.77 725.118C761.932 723.101 760.271 720.965 758.462 718.918C754.756 715.003 751.346 710.761 747.076 707.439C742.895 704.058 738.27 701.121 733.229 699.134C728.218 697.147 722.791 695.812 717.335 696.197L717.306 695.901Z" fill="black"/>
<path d="M250.351 445.553C248.542 446.324 246.674 447.214 245.25 448.49C244.539 449.113 244.124 449.943 244.45 450.477C244.776 451.1 245.755 451.456 246.585 451.871C250.173 453.473 254.027 454.659 257.793 455.905C261.618 457.121 265.503 458.1 269.239 459.554C272.975 461.007 276.681 462.579 280.24 464.567L280.151 464.863C276.088 464.418 272.174 463.469 268.29 462.401C264.406 461.304 260.729 459.702 256.993 458.16C253.256 456.617 249.52 455.134 245.903 453.206C245.458 452.909 245.013 452.731 244.539 452.346L243.857 451.812C243.679 451.545 243.471 451.308 243.323 451.011C243.056 450.359 243.145 449.587 243.471 449.083C243.768 448.549 244.213 448.193 244.628 447.837C246.348 446.591 248.275 445.909 250.202 445.316L250.351 445.553Z" fill="white"/>
<path d="M564.422 162.874C565.815 173.553 565.637 184.349 564.57 195.057C563.443 205.765 561.338 216.384 558.106 226.707C554.903 237 551.078 247.203 545.504 256.517C542.894 261.263 539.751 265.683 536.608 270.043C533.465 274.433 529.729 278.348 526.171 282.383L525.934 282.205C527.387 279.95 528.928 277.755 530.441 275.531C531.953 273.336 533.613 271.23 534.888 268.886C537.616 264.318 540.582 259.899 542.894 255.093C547.995 245.78 552.353 236.08 555.823 225.995C559.292 215.94 561.664 205.469 563.087 194.909C564.54 184.349 565.104 173.582 564.125 162.934L564.422 162.874Z" fill="black"/>
<path d="M457.823 381.365C454.206 389.522 451.597 398.242 450.944 407.082C450.588 411.472 450.707 415.951 451.834 420.163C452.901 424.345 454.71 428.438 457.735 431.493C460.522 434.727 464.288 437.07 468.35 437.989C472.412 438.909 476.741 438.612 480.833 437.396C484.985 436.299 488.958 434.341 492.664 431.998C494.532 430.841 496.312 429.536 497.972 428.082C499.603 426.659 501.441 425.116 502.153 423.158H502.449C502.39 424.404 501.679 425.413 501.056 426.362C500.403 427.311 499.692 428.201 498.921 429.061C497.349 430.752 495.659 432.265 493.85 433.688C490.233 436.506 486.111 438.731 481.693 440.244C477.245 441.668 472.294 442.112 467.638 440.837C462.983 439.591 458.861 436.744 455.955 433.066C452.753 429.595 450.944 425.086 449.966 420.608C448.928 416.099 448.987 411.442 449.491 406.933C450.588 397.886 453.583 389.255 457.586 381.216L457.823 381.365Z" fill="black"/>
<path d="M509.536 423.129C511.108 411.561 508.825 399.785 504.733 388.988C500.611 378.131 494.117 368.343 486.497 359.682C479.024 350.813 469.654 343.842 460.581 336.723C455.837 333.401 450.974 330.227 446.17 326.964C441.129 324.058 436.118 321.091 431.137 317.977L431.255 317.71C436.593 320.083 441.9 322.604 447.178 325.185C452.278 328.092 457.29 331.206 462.271 334.321C471.76 341.262 480.922 348.885 488.276 358.169C495.807 367.216 502.182 377.36 506.097 388.513C509.892 399.607 511.79 411.59 509.803 423.218L509.536 423.129Z" fill="black"/>
<path d="M432.353 444.07C425.829 441.43 419.869 437.544 414.651 432.739C409.521 427.904 405.043 422.209 401.989 415.743C401.04 414.201 400.566 412.48 399.854 410.849L398.846 408.357C398.55 407.527 398.372 406.637 398.105 405.776C397.66 404.056 397.186 402.306 396.8 400.556L396.237 395.217L396.029 392.547L396.148 389.878C396.237 388.098 396.267 386.318 396.415 384.568C396.83 381.068 397.631 377.598 398.401 374.186L398.698 374.246C398.728 376.025 398.639 377.746 398.639 379.496C398.609 381.246 398.401 382.966 398.49 384.687C398.639 386.407 398.639 388.128 398.728 389.848L398.817 392.429L399.202 394.98L399.854 400.052L400.952 405.035C401.129 405.865 401.278 406.726 401.515 407.527L402.345 409.959C402.938 411.561 403.294 413.251 404.124 414.764C406.793 421.082 410.855 426.777 415.659 431.701C420.462 436.655 426.126 440.837 432.412 443.803L432.353 444.07Z" fill="black"/>
<path d="M857.086 453.71C852.223 456.647 847.093 459.079 841.875 461.215C836.626 463.38 831.289 465.219 825.833 466.732C814.921 469.817 803.713 471.745 792.386 472.516C769.643 474.236 746.989 469.965 725.135 464.27C703.193 458.605 681.784 450.536 661.799 439.71C641.903 428.765 623.311 415.595 606.054 401.001L606.232 400.764C624.527 414.022 643.207 426.718 663.163 437.1C683.119 447.452 703.994 456.054 725.728 461.986C747.404 467.918 769.732 472.427 792.267 471.033C803.505 470.44 814.684 468.749 825.566 465.872C831.022 464.448 836.389 462.698 841.637 460.651C846.886 458.634 852.045 456.291 856.908 453.473L857.086 453.71Z" fill="black"/>
<path d="M383.161 500.814C393.302 516.001 400.833 532.938 405.429 550.675C409.907 568.413 410.974 587.249 406.853 605.313C402.701 623.288 393.45 640.166 380.433 653.247C367.475 666.387 351.967 676.739 335.362 684.333L335.214 684.066C350.989 674.989 365.963 664.4 378.268 651.2C384.406 644.645 389.981 637.496 394.369 629.665C398.817 621.894 402.375 613.529 404.51 604.779C408.81 587.249 408.098 568.68 403.947 551.061C399.796 533.412 392.679 516.356 382.894 501.021L383.161 500.814Z" fill="black"/>
<path d="M150.156 699.579C134.886 695.93 120.238 690.057 106.272 682.909C92.2761 675.79 79.1996 666.921 67.2203 656.747C55.3003 646.513 44.6256 634.797 35.6708 621.864C26.7159 608.932 19.5402 594.783 14.1435 580.011C8.71726 565.21 5.54451 549.697 3.46888 534.094L2.37177 522.348C1.95664 518.433 2.1049 514.488 1.95664 510.543C1.57117 502.682 2.1049 494.822 2.43107 486.961C2.52003 483.016 3.08341 479.131 3.52819 475.215L4.89217 463.499C6.1672 455.757 7.56084 448.015 9.01377 440.303C10.8522 432.68 12.5423 424.997 14.4697 417.404L21.2303 394.861L21.4379 394.92C12.9278 425.057 6.07824 455.816 4.62531 487.08C4.29914 494.881 3.7654 502.682 4.15088 510.483C4.29914 514.369 4.15088 518.285 4.566 522.17L5.63347 533.827C7.56084 549.281 10.5557 564.676 15.804 579.388C21.0524 594.071 28.0799 608.131 36.8568 621.034C45.6338 633.937 56.1305 645.653 67.932 655.887C79.7334 666.12 92.6912 675.078 106.568 682.315C120.416 689.583 135.004 695.604 150.186 699.371L150.156 699.579Z" fill="black"/>
<path d="M407.208 304.837C385.355 294.544 362.731 285.853 339.78 278.348C316.83 270.814 293.434 264.615 269.713 260.403C257.852 258.267 245.873 256.843 233.864 255.924C221.885 254.886 209.816 254.737 197.837 255.42C173.849 256.339 149.949 261.738 128.392 272.713L128.244 272.446C149.06 259.928 173.463 253.907 197.659 252.454C221.974 250.941 246.318 253.521 270.128 258.06C293.968 262.568 317.363 269.094 340.255 276.925C363.116 284.844 385.622 293.891 407.327 304.57L407.208 304.837Z" fill="black"/>
<path d="M513.747 719.245C512.828 722.804 512.087 726.393 511.553 730.012C510.96 733.601 510.575 737.25 510.456 740.839C510.367 744.457 510.782 748.017 511.345 751.398C511.939 754.78 513.036 758.043 515.734 760.623L515.586 760.89C511.82 759.674 509.418 755.759 508.44 752.051C507.342 748.254 507.728 744.398 508.084 740.661C508.884 733.216 510.841 726.037 513.451 719.126L513.747 719.245Z" fill="black"/>
<path d="M882.705 449.202C882.379 448.875 882.052 448.549 881.874 448.045C881.786 447.778 881.756 447.452 881.963 447.125C882.171 446.829 882.468 446.71 882.734 446.621C883.743 446.354 884.662 446.443 885.581 446.532L890.8 447.303C892.52 447.541 894.239 447.511 895.781 447.808C896.552 447.926 897.294 448.015 897.916 448.015C898.509 448.015 899.073 447.837 899.547 446.947H899.844C900.021 447.422 900.081 447.956 899.903 448.579C899.695 449.142 899.221 449.647 898.717 449.973C897.709 450.596 896.641 450.744 895.663 450.803C893.706 450.922 891.986 450.151 890.266 449.647L885.255 448.015C884.454 447.778 883.624 447.511 882.912 447.541C882.557 447.6 882.438 447.6 882.438 447.956C882.497 448.312 882.705 448.697 882.912 449.053L882.705 449.202Z" fill="black"/>
<path d="M910.904 445.435C911.408 447.6 911.734 449.825 911.853 452.079C911.882 454.333 911.764 456.677 910.785 459.02C910.281 460.177 909.451 461.363 908.176 462.134C906.901 462.876 905.359 463.054 904.084 462.757C901.534 462.164 899.577 460.711 898.153 458.871L898.302 458.634C900.585 459.109 902.631 459.761 904.469 459.85C906.219 459.88 907.583 459.643 908.68 457.952C909.688 456.321 910.133 454.155 910.37 452.049C910.667 449.914 910.726 447.689 910.607 445.494L910.904 445.435Z" fill="black"/>
<path d="M891.957 455.816C889.792 456.321 887.598 456.617 885.255 456.38C884.129 456.232 882.676 456.261 881.579 454.956C881.045 454.304 880.719 453.354 880.897 452.554C881.015 451.723 881.579 451.219 882.142 450.833L882.409 450.952C882.616 451.604 882.735 452.109 882.972 452.376C883.209 452.642 883.417 452.702 883.654 452.82C884.158 453.028 884.87 453.71 885.789 454.066C886.708 454.452 887.746 454.689 888.784 454.926C889.822 455.193 890.889 455.401 891.957 455.549V455.816Z" fill="black"/>
</g>
<defs>
<clipPath id="clip0">
<rect width="970" height="875" fill="white"/>
</clipPath>
</defs>
</svg>
